<?xml version="1.0" encoding="utf-8"?>
<!-- Generator: Adobe Illustrator 16.0.0, SVG Export Plug-In . SVG Version: 6.00 Build 0)  -->
<!DOCTYPE svg PUBLIC "-//W3C//DTD SVG 1.1//EN" "http://www.w3.org/Graphics/SVG/1.1/DTD/svg11.dtd">
<svg version="1.1" xmlns="http://www.w3.org/2000/svg" xmlns:xlink="http://www.w3.org/1999/xlink" x="0px" y="0px" width="2500px"
	 height="1715px" viewBox="0 0 2500 1715" enable-background="new 0 0 2500 1715" xml:space="preserve">
<g id="Layer_2">
</g>
<g id="Layer_1">
	<path fill="#FFFFFF" d="M225.807,1591.822c0,5.512-4.614,9.998-10.126,9.998H20.596c4.871,48.194,41.145,92.159,92.159,92.159
		c34.864,0,60.756-13.331,80.239-41.145c2.82-3.846,7.049-6.281,12.433-3.974c2.948,1.281,4.999,3.974,5.511,7.05
		c0.513,3.204-0.384,4.999-1.282,6.793c-19.611,34.224-58.705,51.015-97.029,51.015c-65.626,0-112.411-58.705-112.411-121.512
		S47,1470.696,112.627,1470.696C178.253,1470.568,225.678,1529.145,225.807,1591.822 M204.914,1582.338
		c-4.23-48.194-41.145-92.159-92.159-92.159s-87.288,43.965-92.159,92.159H204.914z M462.549,1475.438
		c5.64,0,9.741,4.87,9.741,9.741c0,5.64-4.23,9.741-9.741,9.741h-52.297v205.21c0,4.871-4.229,9.742-9.741,9.742
		c-5.64,0-9.741-4.871-9.741-9.742v-205.21h-50.245c-5.64,0-9.741-4.229-9.741-9.741c0-4.871,4.229-9.741,9.741-9.741h50.245
		v-75.111c0-4.743,3.204-9.101,7.818-9.87c6.537-1.025,11.664,3.461,11.664,9.613v75.368H462.549L462.549,1475.438z
		 M781.579,1574.646v124.331c0,5.64-4.87,9.741-9.741,9.741c-5.64,0-9.741-4.229-9.741-9.741v-124.331
		c0-41.913-23.713-83.827-70.497-83.827c-59.986,0-85.878,52.425-82.417,106.13c0,1.41,0.641,7.691,0.641,8.332v93.313
		c0,4.742-3.204,9.101-7.819,9.869c-6.536,1.025-11.664-3.461-11.664-9.613v-408.37c0-4.87,4.23-9.741,9.742-9.741
		c5.64,0,9.741,4.871,9.741,9.741v231.103c16.791-29.993,46.784-50.245,81.648-50.245
		C748.767,1471.337,781.579,1521.582,781.579,1574.646 M1131.373,1591.822c0,5.512-4.614,9.998-10.126,9.998H926.034
		c4.871,48.194,41.145,92.159,92.159,92.159c34.863,0,60.756-13.331,80.238-41.145c2.819-3.846,7.05-6.281,12.433-3.974
		c2.948,1.281,4.999,3.974,5.512,7.05c0.513,3.204-0.385,4.999-1.281,6.793c-19.611,34.224-58.705,51.015-97.03,51.015
		c-65.626,0-112.41-58.705-112.41-121.512s46.784-121.511,112.41-121.511C1083.819,1470.568,1131.244,1529.145,1131.373,1591.822
		 M1110.352,1582.338c-4.229-48.194-41.145-92.159-92.158-92.159c-51.015,0-87.288,43.965-92.159,92.159H1110.352z
		 M1370.807,1484.539c0,6.28-3.461,9.741-9.101,10.51c-57.295,8.332-83.059,55.116-83.059,109.591v93.313
		c0,4.743-3.204,9.101-7.819,9.87c-6.536,1.025-11.663-3.461-11.663-9.613v-212.645c0-4.742,3.204-9.101,7.818-9.87
		c6.537-1.025,11.664,3.461,11.664,9.613v43.324c16.022-27.174,48.194-53.065,81.648-53.065
		C1365.166,1475.438,1370.807,1479.027,1370.807,1484.539 M1691.247,1591.822c0,5.512-4.614,9.998-10.126,9.998h-195.084
		c4.87,48.194,41.145,92.159,92.158,92.159c34.864,0,60.756-13.331,80.238-41.145c2.82-3.846,7.05-6.281,12.434-3.974
		c2.948,1.281,4.999,3.974,5.512,7.05c0.513,3.204-0.385,4.999-1.282,6.793c-19.61,34.224-58.704,51.015-97.029,51.015
		c-65.626,0-112.41-58.705-112.41-121.512s46.784-121.511,112.41-121.511C1643.693,1470.568,1691.119,1529.145,1691.247,1591.822
		 M1670.354,1582.338c-4.229-48.194-41.145-92.159-92.159-92.159c-51.014,0-87.288,43.965-92.158,92.159H1670.354z
		 M2006.177,1486.975v213.157c0,5.64-4.871,9.741-9.741,9.741c-5.641,0-9.742-4.23-9.742-9.741v-40.504
		c-16.021,32.172-44.733,55.116-81.007,55.116c-57.936,0-90.108-50.246-90.108-103.311v-124.972c0-4.871,4.23-9.741,9.741-9.741
		c5.64,0,9.741,4.87,9.741,9.741v124.972c0,41.914,23.713,83.827,70.498,83.827c65.626,0,81.007-61.396,81.007-129.202v-79.597
		c0-5.64,5.64-11.408,12.562-9.357C2003.356,1478.515,2006.177,1482.616,2006.177,1486.975 M2499.656,1573.878v124.972
		c0,5.64-4.871,9.741-9.742,9.741c-5.64,0-9.741-4.229-9.741-9.741v-124.972c0-41.914-23.712-83.059-70.497-83.059
		c-58.705,0-81.008,62.807-81.008,111.642v96.389c0,5.64-4.87,9.741-9.74,9.741c-5.641,0-9.742-4.229-9.742-9.741v-124.972
		c0-41.914-23.713-83.059-70.497-83.059c-59.346,0-83.827,46.784-81.648,108.95c0,1.409,0.642,4.229,0,4.87v93.954
		c0,4.742-3.204,9.1-7.946,9.869c-6.537,1.025-11.664-3.461-11.664-9.613v-213.285c0-4.742,3.204-9.101,7.818-9.87
		c6.537-1.025,11.664,3.461,11.664,9.613v35.634c16.791-29.994,46.785-49.604,81.648-49.604c39.734,0,70.497,25.122,83.059,62.165
		c16.021-36.273,47.425-62.165,87.929-62.165C2466.843,1471.337,2499.656,1520.813,2499.656,1573.878"/>
	<g>
		<path fill="#FFFFFF" d="M923.983,541.032l326.081,192.649V0L923.983,541.032z"/>
	</g>
	<g>
		<path fill="#EAEAEA" d="M1250.064,0v733.682l325.952-192.649L1250.064,0z"/>
	</g>
	<g>
		<path fill="#FFFFFF" d="M923.983,602.813l326.081,459.384V795.463L923.983,602.813z"/>
	</g>
	<g>
		<path fill="#D0D0D0" d="M1250.064,795.463v266.734l326.209-459.384L1250.064,795.463z"/>
	</g>
	<path opacity="0.1" d="M1250.064,392.732l-326.081,148.3l326.081,192.649l325.952-192.649L1250.064,392.732z"/>
</g>
</svg>
